# Blender v2.79 (sub 0) OBJ File: ''
# www.blender.org
mtllib corner.mtl
o Plane.011_Plane.002
v -0.050686 -0.443995 0.999999
v -0.050686 -0.443995 -1.000000
v -0.017020 -0.345196 -0.999999
v -0.017020 -0.345196 0.999999
v -0.017020 -0.345196 -0.999999
v -0.017020 1.010043 -0.999999
v 0.082229 -0.658328 0.999999
v 0.082229 -0.989957 1.000000
v 0.082229 -0.989957 -0.999998
v -0.050686 -0.513727 0.999999
v -0.050686 -0.513727 -1.000000
v -0.050686 -0.443995 -1.000000
v 0.082229 -0.658328 0.999999
v 0.082229 -0.658328 -1.000000
v -0.050686 -0.513727 -1.000000
v -0.017020 -0.345196 0.999999
v -0.017020 1.010043 1.000000
v 0.082229 -0.658328 -1.000000
v -0.050686 -0.443995 0.999999
v -0.050686 -0.513727 0.999999
vt 0.000100 0.284036
vt 0.986385 0.284036
vt 0.986385 0.334183
vt 0.000100 0.334183
vt 0.986385 0.334183
vt 0.986384 0.999901
vt 0.000100 0.163003
vt 0.000099 0.000101
vt 0.986384 0.000099
vt 0.000100 0.249782
vt 0.986385 0.249781
vt 0.986385 0.284036
vt 0.000100 0.163003
vt 0.986385 0.163002
vt 0.986385 0.249781
vt 0.000100 0.334183
vt 0.000099 0.999900
vt 0.986385 0.163002
vt 0.000100 0.284036
vt 0.000100 0.249782
vn 0.9466 -0.3225 -0.0000
vn 1.0000 0.0000 0.0000
vn 0.7362 0.6767 0.0000
usemtl Material.003
s 1
f 1/1/1 2/2/1 3/3/1
f 4/4/2 5/5/2 6/6/2
f 7/7/2 8/8/2 9/9/2
f 10/10/2 11/11/2 12/12/2
f 13/13/3 14/14/3 15/15/3
f 16/16/1 1/1/1 3/3/1
f 17/17/2 4/4/2 6/6/2
f 18/18/2 7/7/2 9/9/2
f 19/19/2 10/10/2 12/12/2
f 20/20/3 13/13/3 15/15/3
o Plane.011_Plane.000_Plane.011_Plane.003
v -0.999999 -0.443995 -0.050686
v 1.000000 -0.443995 -0.050686
v 0.999999 -0.345196 -0.017020
v -0.999999 -0.345196 -0.017020
v 0.999999 -0.345196 -0.017020
v 0.999999 1.010043 -0.017020
v -0.999999 -0.658328 0.082229
v -1.000000 -0.989957 0.082229
v 0.999998 -0.989957 0.082229
v -0.999999 -0.513727 -0.050686
v 1.000000 -0.513727 -0.050686
v 1.000000 -0.443995 -0.050686
v -0.999999 -0.658328 0.082229
v 1.000000 -0.658328 0.082229
v 1.000000 -0.513727 -0.050686
v -0.999999 -0.345196 -0.017020
v -1.000000 1.010043 -0.017020
v 1.000000 -0.658328 0.082229
v -0.999999 -0.443995 -0.050686
v -0.999999 -0.513727 -0.050686
vt 0.000100 0.284036
vt 0.986385 0.284036
vt 0.986385 0.334183
vt 0.000100 0.334183
vt 0.986385 0.334183
vt 0.986384 0.999901
vt 0.000100 0.163003
vt 0.000099 0.000101
vt 0.986384 0.000099
vt 0.000100 0.249782
vt 0.986385 0.249781
vt 0.986385 0.284036
vt 0.000100 0.163003
vt 0.986385 0.163002
vt 0.986385 0.249781
vt 0.000100 0.334183
vt 0.000099 0.999900
vt 0.986385 0.163002
vt 0.000100 0.284036
vt 0.000100 0.249782
vn 0.0000 -0.3225 0.9466
vn 0.0000 0.0000 1.0000
vn 0.0000 0.6767 0.7362
usemtl Material.004
s 1
f 21/21/4 22/22/4 23/23/4
f 24/24/5 25/25/5 26/26/5
f 27/27/5 28/28/5 29/29/5
f 30/30/5 31/31/5 32/32/5
f 33/33/6 34/34/6 35/35/6
f 36/36/4 21/21/4 23/23/4
f 37/37/5 24/24/5 26/26/5
f 38/38/5 27/27/5 29/29/5
f 39/39/5 30/30/5 32/32/5
f 40/40/6 33/33/6 35/35/6
