# Blender v2.79 (sub 0) OBJ File: ''
# www.blender.org
mtllib SciFi_Wall3.mtl
o Plane.011_Plane.000_Plane.011_Plane.004
v 0.000686 -0.887990 -0.999999
v 0.000686 -0.887990 1.000000
v -0.032980 -0.690392 0.999999
v -0.032980 -0.690392 -0.999999
v -0.032980 -0.690392 0.999999
v -0.032980 2.020086 0.999999
v -0.132229 -1.316656 -0.999999
v -0.132229 -1.979914 -1.000000
v -0.132229 -1.979914 0.999998
v 0.000686 -1.027454 -0.999999
v 0.000686 -1.027454 1.000000
v 0.000686 -0.887990 1.000000
v -0.132229 -1.316656 -0.999999
v -0.132229 -1.316656 1.000000
v 0.000686 -1.027454 1.000000
v -0.032980 -0.690392 -0.999999
v -0.032980 2.020086 -1.000000
v -0.132229 -1.316656 1.000000
v 0.000686 -0.887990 -0.999999
v 0.000686 -1.027454 -0.999999
v 0.032980 -0.690392 0.999999
v 0.032980 2.020086 1.000000
v 0.132229 -1.316656 0.999999
v 0.132229 -1.316656 -1.000000
v 0.132229 -1.979914 -0.999998
v 0.032980 2.020086 -0.999999
v 0.032980 -0.690392 -0.999999
v 0.132229 -1.979914 1.000000
v -0.000686 -1.027454 0.999999
v -0.000686 -0.887990 0.999999
v -0.000686 -0.887990 -1.000000
v 0.032980 -0.690392 0.999999
v 0.032980 -0.690392 -0.999999
v -0.000686 -1.027454 -1.000000
v -0.000686 -0.887990 -1.000000
v 0.132229 -1.316656 0.999999
v -0.000686 -1.027454 -1.000000
v 0.132229 -1.316656 -1.000000
v -0.000686 -0.887990 0.999999
v -0.000686 -1.027454 0.999999
vt 0.986385 0.334183
vt 0.000000 0.000000
vt 0.000000 0.000000
vt 0.000100 0.163003
vt 0.000000 0.000000
vt 0.000000 0.000000
vt 0.000100 0.163003
vt 0.000000 0.000000
vt 0.000000 0.000000
vt 0.000099 0.999900
vt 0.000000 0.000000
vt 0.000000 0.000000
vt 0.986384 0.999901
vt 0.000000 0.000000
vt 0.000099 0.000101
vt 0.000000 0.000000
vt 0.000099 0.000101
vt 0.000000 0.000000
vt 0.000000 0.000000
vt 0.000100 0.334183
vt 0.000100 0.284036
vt 0.986385 0.284036
vt 0.986385 0.334183
vt 0.986384 0.000099
vt 0.000100 0.249782
vt 0.986385 0.249781
vt 0.986385 0.284036
vt 0.000100 0.163003
vt 0.986385 0.163002
vt 0.986385 0.249781
vt 0.000100 0.334183
vt 0.986385 0.163002
vt 0.000100 0.284036
vt 0.000100 0.249782
vt 0.000100 0.284036
vt 0.986385 0.284036
vt 0.986385 0.334183
vt 0.000100 0.334183
vt 0.986385 0.334183
vt 0.986384 0.999901
vt 0.986384 0.000099
vt 0.000100 0.249782
vt 0.986385 0.249781
vt 0.986385 0.284036
vt 0.000100 0.163003
vt 0.986385 0.163002
vt 0.986385 0.249781
vt 0.000100 0.334183
vt 0.000099 0.999900
vt 0.986385 0.163002
vt 0.000100 0.284036
vt 0.000100 0.249782
vn -0.0000 0.0000 1.0000
vn -0.0000 -0.0000 -1.0000
vn -0.9858 -0.1680 -0.0000
vn -1.0000 -0.0000 0.0000
vn -0.9086 0.4176 0.0000
vn 0.9858 -0.1680 -0.0000
vn 1.0000 -0.0000 0.0000
vn 0.9086 0.4176 0.0000
usemtl Material.014_NONE
s 1
f 5/1/1 21/2/1 22/3/1
f 23/4/1 14/5/1 9/6/1
f 7/7/2 24/8/2 25/9/2
f 17/10/2 26/11/2 27/12/2
f 22/3/1 6/13/1 5/1/1
f 5/1/1 12/14/1 21/2/1
f 9/6/1 28/15/1 23/4/1
f 23/4/1 29/16/1 14/5/1
f 25/9/2 8/17/2 7/7/2
f 7/7/2 10/18/2 24/8/2
f 1/19/2 4/20/2 27/12/2
f 4/20/2 17/10/2 27/12/2
usemtl Material.014
f 1/21/3 2/22/3 3/23/3
f 4/20/4 5/1/4 6/13/4
f 7/7/4 8/17/4 9/24/4
f 10/25/4 11/26/4 12/27/4
f 13/28/5 14/29/5 15/30/5
f 16/31/3 1/21/3 3/23/3
f 17/10/4 4/20/4 6/13/4
f 18/32/4 7/7/4 9/24/4
f 19/33/4 10/25/4 12/27/4
f 20/34/5 13/28/5 15/30/5
usemtl Material.013
f 30/35/6 31/36/6 27/37/6
f 32/38/7 33/39/7 26/40/7
f 23/4/7 28/15/7 25/41/7
f 29/42/7 34/43/7 35/44/7
f 36/45/8 24/46/8 37/47/8
f 21/48/6 30/35/6 27/37/6
f 22/49/7 32/38/7 26/40/7
f 38/50/7 23/4/7 25/41/7
f 39/51/7 29/42/7 35/44/7
f 40/52/8 36/45/8 37/47/8
