# Blender v2.79 (sub 0) OBJ File: ''
# www.blender.org
mtllib test.mtl
o Cube.003
v -2.827551 0.002091 2.039883
v -2.827551 2.002091 2.039883
v -2.827551 0.002091 0.039883
v -2.827551 2.002091 0.039883
v -0.827551 0.002091 2.039883
v -0.827551 2.002091 2.039883
v -0.827551 0.002091 0.039883
v -0.827551 2.002091 0.039883
vn -1.0000 0.0000 0.0000
vn 0.0000 0.0000 -1.0000
vn 1.0000 0.0000 0.0000
vn 0.0000 0.0000 1.0000
vn 0.0000 -1.0000 0.0000
vn 0.0000 1.0000 0.0000
usemtl None
s off
f 1//1 2//1 4//1 3//1
f 3//2 4//2 8//2 7//2
f 7//3 8//3 6//3 5//3
f 5//4 6//4 2//4 1//4
f 3//5 7//5 5//5 1//5
f 8//6 4//6 2//6 6//6
o Cube
v 3.722446 -0.331421 -1.896145
v 3.722446 -0.331421 0.103855
v 1.722446 -0.331421 0.103854
v 1.722446 -0.331421 -1.896146
v 3.722446 1.668579 -1.896145
v 3.722445 1.668579 0.103855
v 1.722446 1.668579 0.103854
v 1.722446 1.668579 -1.896145
vn 0.0000 -1.0000 0.0000
vn 0.0000 1.0000 0.0000
vn 1.0000 -0.0000 0.0000
vn -0.0000 -0.0000 1.0000
vn -1.0000 -0.0000 -0.0000
vn 0.0000 0.0000 -1.0000
usemtl Material
s off
f 9//7 10//7 11//7 12//7
f 13//8 16//8 15//8 14//8
f 9//9 13//9 14//9 10//9
f 10//10 14//10 15//10 11//10
f 11//11 15//11 16//11 12//11
f 13//12 9//12 12//12 16//12
o Cube.001
v 3.722446 -0.331421 -1.896145
v 3.722446 -0.331421 0.103855
v 1.722446 -0.331421 0.103854
v 1.722446 -0.331421 -1.896146
v 3.722446 1.668579 -1.896145
v 3.722445 1.668579 0.103855
v 1.722446 1.668579 0.103854
v 1.722446 1.668579 -1.896145
vn 0.0000 -1.0000 0.0000
vn 0.0000 1.0000 0.0000
vn 1.0000 -0.0000 0.0000
vn -0.0000 -0.0000 1.0000
vn -1.0000 -0.0000 -0.0000
vn 0.0000 0.0000 -1.0000
usemtl Material.001
s off
f 17//13 18//13 19//13 20//13
f 21//14 24//14 23//14 22//14
f 17//15 21//15 22//15 18//15
f 18//16 22//16 23//16 19//16
f 19//17 23//17 24//17 20//17
f 21//18 17//18 20//18 24//18
o Cube.002
v 3.722446 -0.331421 -1.896145
v 3.722446 -0.331421 0.103855
v 1.722446 -0.331421 0.103854
v 1.722446 -0.331421 -1.896146
v 3.722446 1.668579 -1.896145
v 3.722445 1.668579 0.103855
v 1.722446 1.668579 0.103854
v 1.722446 1.668579 -1.896145
vn 0.0000 -1.0000 0.0000
vn 0.0000 1.0000 0.0000
vn 1.0000 -0.0000 0.0000
vn -0.0000 -0.0000 1.0000
vn -1.0000 -0.0000 -0.0000
vn 0.0000 0.0000 -1.0000
usemtl Material.002
s off
f 25//19 26//19 27//19 28//19
f 29//20 32//20 31//20 30//20
f 25//21 29//21 30//21 26//21
f 26//22 30//22 31//22 27//22
f 27//23 31//23 32//23 28//23
f 29//24 25//24 28//24 32//24
